<svg width="24" height="24" viewBox="0 0 24 24" fill="none" xmlns="http://www.w3.org/2000/svg">
<path d="M16.52 5.6499L13.42 3.2499C13.02 2.8499 12.12 2.6499 11.52 2.6499H7.71998C6.51998 2.6499 5.21998 3.5499 4.91998 4.7499L2.51998 12.0499C2.01998 13.4499 2.91998 14.6499 4.41998 14.6499H8.41998C9.01998 14.6499 9.51998 15.1499 9.41998 15.8499L8.91998 19.0499C8.71998 19.9499 9.31998 20.9499 10.22 21.2499C11.02 21.5499 12.02 21.1499 12.42 20.5499L16.52 14.4499" stroke="currentColor" stroke-width="1.5" stroke-miterlimit="10"/>
<path d="M21.6199 5.65V15.45C21.6199 16.85 21.0199 17.35 19.6199 17.35H18.6199C17.2199 17.35 16.6199 16.85 16.6199 15.45V5.65C16.6199 4.25 17.2199 3.75 18.6199 3.75H19.6199C21.0199 3.75 21.6199 4.25 21.6199 5.65Z" stroke="currentColor" stroke-width="1.5" stroke-linecap="round" stroke-linejoin="round"/>
</svg>
