<svg xmlns="http://www.w3.org/2000/svg" width="24" height="24" viewBox="0 0 24 24" fill="none">
  <path d="M24 11.2121V19.9146C24 22.1713 22.2616 24 20.1081 24L16 24C15.4477 24 15 23.5523 15 23V16C15 15.4477 14.5523 15 14 15H11.5H10C9.44771 15 9 15.4477 9 16V23C9 23.5523 8.55229 24 8 24L3.89189 24C1.73838 24 0 22.1713 0 19.9146V11.2121C0 9.99298 0.505946 8.85166 1.40108 8.07349L9.50919 0.953256C10.9492 -0.317752 13.0508 -0.317752 14.4908 0.953256L22.5989 8.07349C23.4941 8.85166 24 9.99298 24 11.2121Z" fill="currentColor"/>
</svg>