<svg width="25" height="26" viewBox="0 0 25 26" fill="none" xmlns="http://www.w3.org/2000/svg">
<rect x="5.88574" y="1.67969" width="18.1143" height="18.1143" rx="1" stroke="currentColor" stroke-width="2"/>
<path d="M12.7109 5.59364C12.3641 5.38036 11.9281 5.37332 11.5742 5.57254C11.2203 5.77176 11 6.14676 11 6.55457V14.8046C11 15.2124 11.2203 15.5874 11.5742 15.7866C11.9281 15.9858 12.3641 15.9764 12.7109 15.7655L19.4609 11.6405C19.7961 11.4366 20 11.0733 20 10.6796C20 10.2858 19.7961 9.92489 19.4609 9.71864L12.7109 5.59364Z" fill="currentColor"/>
<path d="M1 3.65112V22.6797C1 23.7843 1.89543 24.6797 3 24.6797H22.0286" stroke="currentColor" stroke-width="2" stroke-linecap="round" stroke-linejoin="round"/>
</svg>
