<svg width="150" height="27" viewBox="0 0 150 27" fill="none" xmlns="http://www.w3.org/2000/svg">
<g clip-path="url(#clip0_23_191)">
<path d="M8.46287 16.9757L0 1.7771H5.48359L10.924 12.1398H11.0535L16.494 1.7771H21.9775L13.5147 16.9757V26.0431H8.46287V16.9757Z" fill="#EE5122"/>
<path d="M19.6892 17.0188C19.6892 11.1898 23.2298 7.64917 28.627 7.64917C34.0243 7.64917 37.5649 11.1466 37.5649 16.9756V17.0188C37.5649 22.891 34.0674 26.3884 28.627 26.3884C23.1434 26.4316 19.6892 22.891 19.6892 17.0188ZM32.5562 17.0188C32.5562 13.5214 31.0018 11.492 28.5839 11.492C26.2091 11.492 24.6547 13.5214 24.6547 16.9756V17.0188C24.6547 20.5594 26.1659 22.5455 28.627 22.5455C31.045 22.5455 32.5562 20.5594 32.5562 17.0188Z" fill="#EE5122"/>
<path d="M39.9827 19.6527V7.99463H44.9049V18.6164C44.9049 20.9912 46.0276 22.3297 48.2296 22.3297C50.4317 22.3297 51.8134 20.7321 51.8134 18.3573V7.99463H56.7357V26.043H51.8134V23.0637H51.7271C50.8203 25.1363 48.9637 26.4316 46.2435 26.4316C42.2711 26.4316 39.9827 23.8841 39.9827 19.6527Z" fill="#EE5122"/>
<path d="M60.3628 1.7771H70.121C75.216 1.7771 78.6702 5.05862 78.6702 10.0673V10.1104C78.6702 15.1191 75.2592 18.4006 70.121 18.4006H65.4578V26.0431H60.3628V1.7771ZM65.4578 5.79264V14.4282L73.3593 10.0673C76.2523 10.0673 73.4889 12.8738 73.4889 10.1104V10.0673C73.4889 7.30387 76.2523 10.0241 73.3593 10.0241L65.4578 5.79264Z" fill="white"/>
<path d="M81.1743 3.11561C81.1743 1.73392 82.3401 0.568115 83.8082 0.568115C85.2762 0.568115 86.442 1.73392 86.442 3.11561C86.442 4.4973 85.3194 5.66311 83.8082 5.66311C82.2969 5.66311 81.1743 4.54048 81.1743 3.11561ZM81.347 7.99471H86.2693V26.0431H81.347V7.99471Z" fill="white"/>
<path d="M93.9551 17.062L88.342 7.99463H93.8688L97.1071 14.0827H97.1935L100.389 7.99463H105.786L100.13 16.9325L105.743 26.043H100.389L96.9344 19.7822H96.8481L93.4802 26.043H88.2988L93.9551 17.062Z" fill="white"/>
<path d="M106.563 17.062C106.563 11.3193 109.931 7.64917 115.242 7.64917C120.509 7.64917 123.834 11.2329 123.834 16.6734V18.1846H111.399C111.442 21.0775 112.996 22.7614 115.501 22.7614C117.53 22.7614 118.739 21.6388 119.085 20.6457L119.128 20.5594H123.618L123.575 20.7321C123.014 23.4091 120.509 26.4316 115.371 26.4316C109.931 26.4316 106.563 22.8478 106.563 17.062ZM111.442 15.0758H119.085C118.782 12.5714 117.314 11.2761 115.285 11.2761C113.299 11.3193 111.788 12.6578 111.442 15.0758Z" fill="white"/>
<path d="M126.468 1.7771H131.39V26.0431H126.468V1.7771Z" fill="white"/>
<path d="M133.981 20.6889V20.5162H138.774L138.817 20.6889C139.119 22.1138 140.199 22.9341 142.185 22.9341C144.041 22.9341 145.164 22.2001 145.164 21.0343C145.164 20.0844 144.56 19.5231 142.789 19.1345L139.724 18.4868C136.226 17.7528 134.456 15.9825 134.456 13.3055C134.456 9.85124 137.435 7.64917 142.012 7.64917C146.805 7.64917 149.482 10.1967 149.611 13.3487V13.5214H145.078V13.3918C144.905 12.0965 143.869 11.1034 142.012 11.1034C140.328 11.1034 139.249 11.8806 139.249 13.0032C139.249 13.91 139.853 14.5145 141.71 14.9031L144.775 15.5507C148.532 16.3279 150.086 17.8392 150.086 20.473C150.086 24.0136 146.848 26.3452 142.185 26.3452C137.133 26.4316 134.37 24.0999 133.981 20.6889Z" fill="white"/>
<path d="M65 5.375L74.375 10.375L65 15.375V10.375V5.375Z" fill="url(#paint0_linear_23_191)"/>
</g>
<defs>
<linearGradient id="paint0_linear_23_191" x1="66" y1="9.41367" x2="77.5" y2="27.4137" gradientUnits="userSpaceOnUse">
<stop stop-color="#F85A2B"/>
<stop offset="0.86263" stop-color="#EE5122" stop-opacity="0"/>
</linearGradient>
<clipPath id="clip0_23_191">
<rect width="150" height="25.8636" fill="white" transform="translate(0 0.568115)"/>
</clipPath>
</defs>
</svg>
