<svg width="24" height="24" viewBox="0 0 24 24" fill="none" xmlns="http://www.w3.org/2000/svg">
<path d="M16.96 6.16992C18.96 7.55992 20.34 9.76992 20.62 12.3199" stroke="currentColor" stroke-width="1.5" stroke-linecap="round" stroke-linejoin="round"/>
<path d="M3.48999 12.37C3.74999 9.82997 5.10999 7.61997 7.08999 6.21997" stroke="currentColor" stroke-width="1.5" stroke-linecap="round" stroke-linejoin="round"/>
<path d="M8.18994 20.9399C9.34994 21.5299 10.6699 21.8599 12.0599 21.8599C13.3999 21.8599 14.6599 21.5599 15.7899 21.0099" stroke="currentColor" stroke-width="1.5" stroke-linecap="round" stroke-linejoin="round"/>
<path d="M12.06 7.69989C13.5954 7.69989 14.84 6.45524 14.84 4.91989C14.84 3.38454 13.5954 2.13989 12.06 2.13989C10.5247 2.13989 9.28003 3.38454 9.28003 4.91989C9.28003 6.45524 10.5247 7.69989 12.06 7.69989Z" stroke="currentColor" stroke-width="1.5" stroke-linecap="round" stroke-linejoin="round"/>
<path d="M4.83005 19.9201C6.3654 19.9201 7.61005 18.6755 7.61005 17.1401C7.61005 15.6048 6.3654 14.3601 4.83005 14.3601C3.2947 14.3601 2.05005 15.6048 2.05005 17.1401C2.05005 18.6755 3.2947 19.9201 4.83005 19.9201Z" stroke="currentColor" stroke-width="1.5" stroke-linecap="round" stroke-linejoin="round"/>
<path d="M19.1699 19.9201C20.7052 19.9201 21.9499 18.6755 21.9499 17.1401C21.9499 15.6048 20.7052 14.3601 19.1699 14.3601C17.6345 14.3601 16.3899 15.6048 16.3899 17.1401C16.3899 18.6755 17.6345 19.9201 19.1699 19.9201Z" stroke="currentColor" stroke-width="1.5" stroke-linecap="round" stroke-linejoin="round"/>
</svg>
