<svg xmlns="http://www.w3.org/2000/svg" width="24" height="25" viewBox="0 0 24 25" fill="none">
  <path d="M8.82656 7.575C9.17813 7.37344 9.61406 7.34062 9.96094 7.59375L16.7109 11.7188C17.0438 11.925 17.25 12.2859 17.25 12.6797C17.25 13.0734 17.0438 13.4344 16.7109 13.6406L9.96094 17.7656C9.61406 17.9766 9.17813 17.9859 8.82656 17.7844C8.47031 17.5875 8.25 17.2125 8.25 16.8047V8.5125C8.25 8.14688 8.47031 7.77188 8.82656 7.575ZM24 12.6797C24 19.3078 18.6281 24.6797 12 24.6797C5.37188 24.6797 0 19.3078 0 12.6797C0 6.05156 5.37188 0.679688 12 0.679688C18.6281 0.679688 24 6.05156 24 12.6797ZM12 2.92969C6.61406 2.92969 2.25 7.29375 2.25 12.6797C2.25 18.0656 6.61406 22.4297 12 22.4297C17.3859 22.4297 21.75 18.0656 21.75 12.6797C21.75 7.29375 17.3859 2.92969 12 2.92969Z" fill="currentColor"/>
</svg>