<svg xmlns="http://www.w3.org/2000/svg" width="24" height="32" viewBox="0 0 24 32" fill="none">
  <path d="M8.5 1.25098C9 -0.248991 9.58214 -0.140064 10 0.251007C11.5 2.25096 12.75 11.4563 14.0464 13.0742C14.6357 12.3028 15.4393 7.43312 16.1625 6.7474C16.5857 6.35098 17.2393 6.35098 17.6625 6.75276C19.5161 8.52062 21.0857 10.8563 22.1893 13.0742C23.2768 15.2599 24 17.4938 24 19.0688C24 25.9045 18.6536 31.6795 12 31.6795C5.27143 31.6795 0.000100139 26.5867 0 19.751C-3.66233e-05 17.251 2.52143 13.6653 4 11.1795C5.49464 8.65633 7 5.17952 8.5 1.25098ZM12.0911 26.5367C13.4464 26.5367 14.6464 26.1617 15.7768 25.4117C18.0321 23.8367 18.6375 20.6867 17.2821 18.2117C17.1321 17.9117 16.9821 17.6117 16.7571 17.3117L14.0464 20.4617C14.0464 20.4617 9.68571 14.9117 9.38036 14.5367C7.13036 17.3117 6 18.8867 6 20.6867C6 24.3617 8.71071 26.5367 12.0911 26.5367Z" fill="currentColor"/>
</svg>