<svg width="24" height="24" viewBox="0 0 24 24" fill="none" xmlns="http://www.w3.org/2000/svg">
<path d="M9 22H15C20 22 22 20 22 15V9C22 4 20 2 15 2H9C4 2 2 4 2 9V15C2 20 4 22 9 22Z" stroke="currentColor" stroke-width="1.5" stroke-linecap="round" stroke-linejoin="round"/>
<path d="M9.09998 12V10.52C9.09998 8.60999 10.45 7.83999 12.1 8.78999L13.38 9.52999L14.66 10.27C16.31 11.22 16.31 12.78 14.66 13.73L13.38 14.47L12.1 15.21C10.45 16.16 9.09998 15.38 9.09998 13.48V12Z" stroke="currentColor" stroke-width="1.5" stroke-miterlimit="10" stroke-linecap="round" stroke-linejoin="round"/>
</svg>
